<svg width="40" height="41" viewBox="0 0 40 41" fill="none" xmlns="http://www.w3.org/2000/svg">
<path d="M19.9999 40C31.0456 40 39.9999 31.0457 39.9999 20C39.9999 8.9543 31.0456 0 19.9999 0C8.95424 0 -6.10352e-05 8.9543 -6.10352e-05 20C-6.10352e-05 31.0457 8.95424 40 19.9999 40Z" fill="white" fill-opacity="0.1"/>
<g filter="url(#filter0_d)">
<path d="M18.8424 28.0463C14.9124 27.4707 11.8964 24.0828 11.8964 19.9891C11.8964 15.8954 14.9124 12.5075 18.8424 11.9322V7.69238C12.5855 8.29084 7.69232 13.5677 7.69232 19.9891C7.69232 26.4104 12.5855 31.687 18.8424 32.2858V28.0463Z" fill="white"/>
<path d="M18.8424 28.0463H19.3424V27.6142L18.9148 27.5516L18.8424 28.0463ZM18.8424 11.9322L18.9148 12.4269L19.3424 12.3643V11.9322H18.8424ZM18.8424 7.69238H19.3424V7.14228L18.7948 7.19465L18.8424 7.69238ZM18.8424 32.2858L18.7947 32.7835L19.3424 32.8359V32.2858H18.8424ZM18.9148 27.5516C15.2273 27.0115 12.3964 23.8315 12.3964 19.9891H11.3964C11.3964 24.3341 14.5975 27.9299 18.7699 28.541L18.9148 27.5516ZM12.3964 19.9891C12.3964 16.1466 15.2273 12.9667 18.9148 12.4269L18.7699 11.4375C14.5975 12.0482 11.3964 15.6441 11.3964 19.9891H12.3964ZM19.3424 11.9322V7.69238H18.3424V11.9322H19.3424ZM18.7948 7.19465C12.2834 7.81746 7.19232 13.3081 7.19232 19.9891H8.19232C8.19232 13.8274 12.8877 8.76422 18.89 8.19011L18.7948 7.19465ZM7.19232 19.9891C7.19232 26.6701 12.2834 32.1604 18.7947 32.7835L18.89 31.7881C12.8877 31.2137 8.19232 26.1508 8.19232 19.9891H7.19232ZM19.3424 32.2858V28.0463H18.3424V32.2858H19.3424Z" fill="black"/>
</g>
<path d="M26.9983 12L26.8892 12.3711V23.1393L26.9983 23.2483L31.9968 20.2937L26.9983 12Z" fill="white"/>
<path d="M26.9984 12L21.9999 20.2937L26.9984 23.2483V18.0217V12Z" fill="white"/>
<path d="M26.9986 24.8742L26.9371 24.9492V28.7851L26.9986 28.9648L32.0001 21.9211L26.9986 24.8742Z" fill="white"/>
<path d="M26.9984 28.9648V24.8742L21.9999 21.9211L26.9984 28.9648Z" fill="white"/>
<path d="M26.9984 23.2482L31.9968 20.2937L26.9984 18.0217V23.2482Z" fill="white"/>
<path d="M21.9999 20.2937L26.9983 23.2482V18.0217L21.9999 20.2937Z" fill="white"/>
<defs>
<filter id="filter0_d" x="3.19232" y="7.14233" width="20.15" height="33.6937" filterUnits="userSpaceOnUse" color-interpolation-filters="sRGB">
<feFlood flood-opacity="0" result="BackgroundImageFix"/>
<feColorMatrix in="SourceAlpha" type="matrix" values="0 0 0 0 0 0 0 0 0 0 0 0 0 0 0 0 0 0 127 0"/>
<feOffset dy="4"/>
<feGaussianBlur stdDeviation="2"/>
<feColorMatrix type="matrix" values="0 0 0 0 0 0 0 0 0 0 0 0 0 0 0 0 0 0 0.25 0"/>
<feBlend mode="normal" in2="BackgroundImageFix" result="effect1_dropShadow"/>
<feBlend mode="normal" in="SourceGraphic" in2="effect1_dropShadow" result="shape"/>
</filter>
</defs>
</svg>
